solid OpenSCAD_Model
	facet normal 0.0 0.356822089773 -0.934172358963
		outer loop
			vertex 10.0 0 32.360679775
			vertex 0 -16.1803398875 26.1803398875
			vertex -10.0 0 32.360679775
		endloop
	endfacet
	facet normal -0.57735026919 0.57735026919 -0.57735026919
		outer loop
			vertex 10.0 0 32.360679775
			vertex 16.1803398875 -10.0 16.1803398875
			vertex 0 -16.1803398875 26.1803398875
		endloop
	endfacet
	facet normal -0.356822089773 0.934172358963 0.0
		outer loop
			vertex 16.1803398875 -10.0 16.1803398875
			vertex 0 -16.1803398875 6.1803398875
			vertex 0 -16.1803398875 26.1803398875
		endloop
	endfacet
	facet normal -0.57735026919 0.57735026919 0.57735026919
		outer loop
			vertex 16.1803398875 -10.0 16.1803398875
			vertex 10.0 0 0.0
			vertex 0 -16.1803398875 6.1803398875
		endloop
	endfacet
	facet normal -0.934172358963 0.0 0.356822089773
		outer loop
			vertex 16.1803398875 10.0 16.1803398875
			vertex 10.0 0 0.0
			vertex 16.1803398875 -10.0 16.1803398875
		endloop
	endfacet
	facet normal -0.57735026919 -0.57735026919 0.57735026919
		outer loop
			vertex 16.1803398875 10.0 16.1803398875
			vertex 0 16.1803398875 6.1803398875
			vertex 10.0 0 0.0
		endloop
	endfacet
	facet normal -0.934172358963 0.0 -0.356822089773
		outer loop
			vertex 10.0 0 32.360679775
			vertex 16.1803398875 10.0 16.1803398875
			vertex 16.1803398875 -10.0 16.1803398875
		endloop
	endfacet
	facet normal 0.356822089773 0.934172358963 0.0
		outer loop
			vertex 0 16.1803398875 26.1803398875
			vertex 16.1803398875 10.0 16.1803398875
			vertex 0 16.1803398875 6.1803398875
		endloop
	endfacet
	facet normal 0.57735026919 0.57735026919 0.57735026919
		outer loop
			vertex 10.0 0 32.360679775
			vertex 16.1803398875 10.0 16.1803398875
			vertex 0 16.1803398875 26.1803398875
		endloop
	endfacet
	facet normal 0.0 -0.356822089773 -0.934172358963
		outer loop
			vertex 0 16.1803398875 26.1803398875
			vertex 10.0 0 32.360679775
			vertex -10.0 0 32.360679775
		endloop
	endfacet
	facet normal 0.0 -0.356822089773 0.934172358963
		outer loop
			vertex 0 16.1803398875 6.1803398875
			vertex -10.0 0 0.0
			vertex 10.0 0 0.0
		endloop
	endfacet
	facet normal 0.0 -0.356822089773 -0.934172358963
		outer loop
			vertex 0 -16.1803398875 6.1803398875
			vertex -10.0 0 0.0
			vertex 10.0 0 0.0
		endloop
	endfacet
	facet normal -0.57735026919 -0.57735026919 -0.57735026919
		outer loop
			vertex 0 -16.1803398875 6.1803398875
			vertex -16.1803398875 -10.0 16.1803398875
			vertex -10.0 0 0.0
		endloop
	endfacet
	facet normal -0.356822089773 -0.934172358963 -0.0
		outer loop
			vertex 0 -16.1803398875 26.1803398875
			vertex -16.1803398875 -10.0 16.1803398875
			vertex 0 -16.1803398875 6.1803398875
		endloop
	endfacet
	facet normal -0.57735026919 0.57735026919 -0.57735026919
		outer loop
			vertex -10.0 0 0.0
			vertex -16.1803398875 10.0 16.1803398875
			vertex 0 16.1803398875 6.1803398875
		endloop
	endfacet
	facet normal 0.934172358963 0.0 0.356822089773
		outer loop
			vertex -16.1803398875 10.0 16.1803398875
			vertex -16.1803398875 -10.0 16.1803398875
			vertex -10.0 0 0.0
		endloop
	endfacet
	facet normal -0.356822089773 0.934172358963 0.0
		outer loop
			vertex -16.1803398875 10.0 16.1803398875
			vertex 0 16.1803398875 26.1803398875
			vertex 0 16.1803398875 6.1803398875
		endloop
	endfacet
	facet normal -0.57735026919 -0.57735026919 0.57735026919
		outer loop
			vertex -16.1803398875 -10.0 16.1803398875
			vertex 0 -16.1803398875 26.1803398875
			vertex -10.0 0 32.360679775
		endloop
	endfacet
	facet normal -0.934172358963 0.0 0.356822089773
		outer loop
			vertex -10.0 0 32.360679775
			vertex -16.1803398875 10.0 16.1803398875
			vertex -16.1803398875 -10.0 16.1803398875
		endloop
	endfacet
	facet normal 0.57735026919 -0.57735026919 -0.57735026919
		outer loop
			vertex -16.1803398875 10.0 16.1803398875
			vertex 0 16.1803398875 26.1803398875
			vertex -10.0 0 32.360679775
		endloop
	endfacet
endsolid OpenSCAD_Model